<?xml version="1.0" encoding="UTF-8" standalone="no"?>
<!-- Created with Inkscape (http://www.inkscape.org/) -->

<svg
   xmlns:dc="http://purl.org/dc/elements/1.1/"
   xmlns:cc="http://creativecommons.org/ns#"
   xmlns:rdf="http://www.w3.org/1999/02/22-rdf-syntax-ns#"
   xmlns:svg="http://www.w3.org/2000/svg"
   xmlns="http://www.w3.org/2000/svg"
   xmlns:sodipodi="http://sodipodi.sourceforge.net/DTD/sodipodi-0.dtd"
   xmlns:inkscape="http://www.inkscape.org/namespaces/inkscape"
   width="1"
   height="1.75"
   viewBox="0 0 1 1.75"
   id="svg2"
   version="1.1"
   inkscape:version="0.91 r13725"
   sodipodi:docname="mute.svg">
  <defs
     id="defs4" />
  <sodipodi:namedview
     id="base"
     pagecolor="#ffffff"
     bordercolor="#666666"
     borderopacity="1.0"
     inkscape:pageopacity="0.0"
     inkscape:pageshadow="2"
     inkscape:zoom="256"
     inkscape:cx="0.28488262"
     inkscape:cy="0.95675074"
     inkscape:document-units="px"
     inkscape:current-layer="layer1"
     showgrid="false"
     fit-margin-top="0"
     fit-margin-left="0"
     fit-margin-right="0"
     fit-margin-bottom="0"
     inkscape:window-width="1366"
     inkscape:window-height="719"
     inkscape:window-x="0"
     inkscape:window-y="1"
     inkscape:window-maximized="1"
     width="19.75556mm"
     units="px" />
  <metadata
     id="metadata7">
    <rdf:RDF>
      <cc:Work
         rdf:about="">
        <dc:format>image/svg+xml</dc:format>
        <dc:type
           rdf:resource="http://purl.org/dc/dcmitype/StillImage" />
        <dc:title></dc:title>
      </cc:Work>
    </rdf:RDF>
  </metadata>
  <g
     inkscape:label="Layer 1"
     inkscape:groupmode="layer"
     id="layer1"
     transform="translate(0,-1050.6122)">
    <path
       style="fill:#ffffff;fill-opacity:1"
       d="M 0.375 0 L 0.375 0.125 L 0.5 0.125 L 0.5 0.25 L 0.5 0.375 L 0.5 0.5 L 0.5 0.625 L 0.5 0.75 L 0.375 0.75 L 0.375 0.875 L 0.5 0.875 L 0.625 0.875 L 0.625 0.75 L 0.625 0.625 L 0.625 0.5 L 0.625 0.375 L 0.625 0.25 L 0.625 0.125 L 0.625 0 L 0.5 0 L 0.375 0 z M 0.375 0.75 L 0.375 0.625 L 0.25 0.625 L 0.25 0.75 L 0.375 0.75 z M 0.25 0.625 L 0.25 0.5 L 0.125 0.5 L 0.125 0.375 L 0.25 0.375 L 0.25 0.25 L 0.125 0.25 L 0 0.25 L 0 0.375 L 0 0.5 L 0 0.625 L 0.125 0.625 L 0.25 0.625 z M 0.25 0.25 L 0.375 0.25 L 0.375 0.125 L 0.25 0.125 L 0.25 0.25 z "
       transform="translate(0,1050.6122)"
       id="rect5714" />
    <path
       style="fill:#ffffff;fill-opacity:1"
       d="M 0.375 0.875 L 0.375 1 L 0.5 1 L 0.5 1.125 L 0.5 1.25 L 0.5 1.375 L 0.5 1.5 L 0.5 1.625 L 0.375 1.625 L 0.375 1.75 L 0.5 1.75 L 0.625 1.75 L 0.625 1.625 L 0.625 1.5 L 0.625 1.375 L 0.625 1.25 L 0.625 1.125 L 0.625 1 L 0.625 0.875 L 0.5 0.875 L 0.375 0.875 z M 0.375 1.625 L 0.375 1.5 L 0.25 1.5 L 0.25 1.625 L 0.375 1.625 z M 0.25 1.5 L 0.25 1.375 L 0.125 1.375 L 0.125 1.25 L 0.25 1.25 L 0.25 1.125 L 0.125 1.125 L 0 1.125 L 0 1.25 L 0 1.375 L 0 1.5 L 0.125 1.5 L 0.25 1.5 z M 0.25 1.125 L 0.375 1.125 L 0.375 1 L 0.25 1 L 0.25 1.125 z "
       transform="translate(0,1050.6122)"
       id="rect6390" />
    <path
       style="fill:#ffffff;fill-opacity:1"
       d="M 0.75 1.25 L 0.75 1.375 L 0.875 1.375 L 1 1.375 L 1 1.25 L 0.875 1.25 L 0.75 1.25 z "
       transform="translate(0,1050.6122)"
       id="rect6408" />
    <rect
       style="fill:#ffffff;fill-opacity:1"
       id="rect6416"
       width="0.125"
       height="0.125"
       x="0.875"
       y="1051.4872" />
    <rect
       style="fill:#ffffff;fill-opacity:1"
       id="rect6418"
       width="0.125"
       height="0.125"
       x="0.75"
       y="1051.6122" />
    <rect
       style="fill:#ffffff;fill-opacity:1"
       id="rect6420"
       width="0.125"
       height="0.125"
       x="0.875"
       y="1052.2372" />
    <rect
       style="fill:#ffffff;fill-opacity:1"
       id="rect6424"
       width="0.125"
       height="0.125"
       x="0.75"
       y="1052.1122" />
  </g>
</svg>
