<?xml version="1.0" encoding="UTF-8" standalone="no"?>
<!-- Created with Inkscape (http://www.inkscape.org/) -->

<svg
   xmlns:dc="http://purl.org/dc/elements/1.1/"
   xmlns:cc="http://creativecommons.org/ns#"
   xmlns:rdf="http://www.w3.org/1999/02/22-rdf-syntax-ns#"
   xmlns:svg="http://www.w3.org/2000/svg"
   xmlns="http://www.w3.org/2000/svg"
   xmlns:sodipodi="http://sodipodi.sourceforge.net/DTD/sodipodi-0.dtd"
   xmlns:inkscape="http://www.inkscape.org/namespaces/inkscape"
   width="1.00014"
   height="2.7319601"
   id="svg2"
   version="1.1"
   inkscape:version="0.48.5 r10040"
   sodipodi:docname="splash.svg">
  <defs
     id="defs4" />
  <sodipodi:namedview
     id="base"
     pagecolor="#ffffff"
     bordercolor="#666666"
     borderopacity="1.0"
     inkscape:pageopacity="0"
     inkscape:pageshadow="2"
     inkscape:zoom="128"
     inkscape:cx="0.30438981"
     inkscape:cy="1.5375167"
     inkscape:document-units="px"
     inkscape:current-layer="layer1"
     showgrid="false"
     inkscape:window-width="913"
     inkscape:window-height="622"
     inkscape:window-x="184"
     inkscape:window-y="42"
     inkscape:window-maximized="0"
     fit-margin-top="0"
     fit-margin-left="0"
     fit-margin-right="0"
     fit-margin-bottom="0" />
  <metadata
     id="metadata7">
    <rdf:RDF>
      <cc:Work
         rdf:about="">
        <dc:format>image/svg+xml</dc:format>
        <dc:type
           rdf:resource="http://purl.org/dc/dcmitype/StillImage" />
        <dc:title />
      </cc:Work>
    </rdf:RDF>
  </metadata>
  <g
     inkscape:label="Layer 1"
     inkscape:groupmode="layer"
     id="layer1"
     transform="translate(-223.53125,-915.89304)">
    <g
       id="g3092"
       transform="translate(0,-0.07835001)">
      <path
         sodipodi:nodetypes="szsccs"
         inkscape:connector-curvature="0"
         id="rect2985"
         d="m 223.59375,916.62053 c 0,-0.20476 0.0208,-0.58664 0.43757,-0.58664 0.41682,0 0.43757,0.38188 0.43757,0.58664 l 0,0.65432 -0.87514,0 z"
         style="color:#000000;fill:#000000;fill-opacity:1;fill-rule:nonzero;stroke:#ffffff;stroke-width:0.03937709;stroke-linecap:butt;stroke-linejoin:miter;stroke-miterlimit:4;stroke-opacity:1;stroke-dashoffset:0;marker:none;visibility:visible;display:inline;overflow:visible;enable-background:accumulate" />
      <path
         sodipodi:nodetypes="cccccc"
         inkscape:connector-curvature="0"
         id="rect2988"
         d="m 223.70256,916.34413 0.65219,0 c 0.0223,0.0691 0.0283,0.14154 0.0322,0.23128 l -0.35872,-0.0559 -0.35638,0.0559 c 9.1e-4,-0.0721 0.0132,-0.17199 0.0308,-0.23128 z"
         style="color:#000000;fill:#ffffff;fill-opacity:1;fill-rule:nonzero;stroke:#ffffff;stroke-width:0.03937709;stroke-linecap:butt;stroke-linejoin:miter;stroke-miterlimit:4;stroke-opacity:1;stroke-dashoffset:0;marker:none;visibility:visible;display:inline;overflow:visible;enable-background:accumulate" />
      <path
         transform="matrix(0.00392695,0,0,0.00394849,223.13977,915.25759)"
         d="m 211.12189,305.35437 c 0,5.29997 -4.29648,9.59645 -9.59645,9.59645 -5.29998,0 -9.59645,-4.29648 -9.59645,-9.59645 0,-5.29997 4.29647,-9.59645 9.59645,-9.59645 5.29997,0 9.59645,4.29648 9.59645,9.59645 z"
         sodipodi:ry="9.5964489"
         sodipodi:rx="9.5964489"
         sodipodi:cy="305.35437"
         sodipodi:cx="201.52544"
         id="path3054"
         style="color:#000000;fill:#000000;fill-opacity:1;fill-rule:nonzero;stroke:none;stroke-width:10;marker:none;visibility:visible;display:inline;overflow:visible;enable-background:accumulate"
         sodipodi:type="arc" />
      <path
         d="m 211.12189,305.35437 c 0,5.29997 -4.29648,9.59645 -9.59645,9.59645 -5.29998,0 -9.59645,-4.29648 -9.59645,-9.59645 0,-5.29997 4.29647,-9.59645 9.59645,-9.59645 5.29997,0 9.59645,4.29648 9.59645,9.59645 z"
         sodipodi:ry="9.5964489"
         sodipodi:rx="9.5964489"
         sodipodi:cy="305.35437"
         sodipodi:cx="201.52544"
         id="path3054-0"
         style="color:#000000;fill:#000000;fill-opacity:1;fill-rule:nonzero;stroke:none;stroke-width:10;marker:none;visibility:visible;display:inline;overflow:visible;enable-background:accumulate"
         sodipodi:type="arc"
         transform="matrix(0.00392695,0,0,0.00394849,223.34011,915.25759)" />
      <path
         d="m 223.70511,916.73766 0,0.16659 c -3e-5,0.006 0.002,0.0113 0.005,0.0149 0.003,0.004 0.008,0.006 0.0149,0.006 l 0.0472,0 0,0.006 -0.0668,0 0,0.0523 0.1066,0 c 0.006,-6e-5 0.0117,-0.002 0.0149,-0.006 0.003,-0.004 0.005,-0.008 0.005,-0.0149 l 0,-0.24535 -0.10661,0 c -0.006,6e-5 -0.0117,0.002 -0.0149,0.006 -0.003,0.004 -0.005,0.008 -0.005,0.0149 z m 0.0593,0.13191 0,-0.097 c 1.3e-4,-9.2e-4 4.2e-4,-0.002 8.8e-4,-0.002 4.5e-4,-4.1e-4 9.1e-4,-6.7e-4 0.002,-8e-4 l 0.005,0 0,0.10264 -0.004,0 c -9.2e-4,2e-5 -0.002,-1.7e-4 -0.003,-5.7e-4 -6.3e-4,-4e-4 -9.2e-4,-9.1e-4 -9.2e-4,-0.002 z"
         style="font-size:72px;font-style:normal;font-variant:normal;font-weight:900;font-stretch:normal;text-align:center;line-height:75%;letter-spacing:0px;word-spacing:0px;text-anchor:middle;fill:#ffffff;fill-opacity:1;stroke:none;font-family:Pincoyablack;-inkscape-font-specification:Pincoyablack Heavy"
         id="path3045"
         inkscape:connector-curvature="0" />
      <path
         d="m 223.90383,916.84086 0,0.0634 c -4e-5,0.006 0.002,0.0113 0.005,0.0149 0.003,0.004 0.008,0.006 0.0149,0.006 l 0.0399,0 0,-0.0793 c 4e-5,-0.006 -0.002,-0.0113 -0.005,-0.0148 -0.003,-0.004 -0.008,-0.006 -0.0149,-0.006 l -2.9e-4,0 0,-0.004 2.9e-4,0 c 0.006,-7e-5 0.0117,-0.002 0.0149,-0.006 0.003,-0.004 0.005,-0.008 0.005,-0.0149 l 0,-0.0648 c -2e-5,-0.006 -0.002,-0.01 -0.005,-0.0133 -0.004,-0.004 -0.008,-0.006 -0.0146,-0.006 l -0.10658,0 0,0.20696 0.0593,0 0,-0.0875 0.004,0 c 0.002,-4e-5 0.003,2.4e-4 0.003,8.1e-4 6.2e-4,5.9e-4 9.2e-4,0.002 9.2e-4,0.003 z m 0,-0.0308 c -1.5e-4,9.2e-4 -5.7e-4,0.002 -9.2e-4,0.002 -6.8e-4,4.1e-4 -0.002,6e-4 -0.003,5.7e-4 l -0.004,0 0,-0.0431 0.007,0 z"
         style="font-size:72px;font-style:normal;font-variant:normal;font-weight:900;font-stretch:normal;text-align:center;line-height:75%;letter-spacing:0px;word-spacing:0px;text-anchor:middle;fill:#ffffff;fill-opacity:1;stroke:none;font-family:Pincoyablack;-inkscape-font-specification:Pincoyablack Heavy"
         id="path3047"
         inkscape:connector-curvature="0" />
      <path
         d="m 223.96908,916.76977 0,0.15467 0.0593,0 0,-0.15467 z m 0,-0.052 0,0.0462 0.0593,0 0,-0.0462 z"
         style="font-size:72px;font-style:normal;font-variant:normal;font-weight:900;font-stretch:normal;text-align:center;line-height:75%;letter-spacing:0px;word-spacing:0px;text-anchor:middle;fill:#ffffff;fill-opacity:1;stroke:none;font-family:Pincoyablack;-inkscape-font-specification:Pincoyablack Heavy"
         id="path3049"
         inkscape:connector-curvature="0" />
      <path
         d="m 224.10097,916.77263 0,0.13162 c -3e-5,0.006 0.002,0.0113 0.005,0.0149 0.003,0.004 0.008,0.006 0.0149,0.006 l 0.0399,0 0,-0.15494 0.003,0 c 9.1e-4,1.4e-4 0.002,5.2e-4 0.003,9.1e-4 4.7e-4,6.3e-4 7.1e-4,0.002 7e-4,0.003 l 0,0.13078 c -4e-5,0.006 0.002,0.0113 0.005,0.0149 0.003,0.004 0.008,0.006 0.0148,0.006 l 0.0399,0 0,-0.18706 c 4e-5,-0.006 -0.002,-0.0113 -0.005,-0.0149 -0.003,-0.004 -0.008,-0.006 -0.0149,-0.006 l -0.17217,2.8e-4 0,0.20696 0.0593,0 0,-0.15466 0.005,0 c 8.5e-4,1.2e-4 0.002,3.9e-4 0.002,7.9e-4 5.4e-4,4e-4 8.8e-4,9.1e-4 9.2e-4,0.002 z"
         style="font-size:72px;font-style:normal;font-variant:normal;font-weight:900;font-stretch:normal;text-align:center;line-height:75%;letter-spacing:0px;word-spacing:0px;text-anchor:middle;fill:#ffffff;fill-opacity:1;stroke:none;font-family:Pincoyablack;-inkscape-font-specification:Pincoyablack Heavy"
         id="path3051"
         inkscape:connector-curvature="0" />
      <path
         d="m 223.90386,916.98584 0,0.13163 c -4e-5,0.006 0.002,0.0113 0.005,0.0149 0.003,0.004 0.008,0.006 0.0149,0.006 l 0.0399,0 0,-0.18679 c 4e-5,-0.006 -0.002,-0.0113 -0.005,-0.0149 -0.003,-0.004 -0.008,-0.006 -0.0149,-0.006 l -0.10659,0 0,0.20696 0.0593,0 0,-0.15464 0.005,0 c 9.1e-4,1.1e-4 0.002,3.7e-4 0.002,7.8e-4 4.9e-4,4e-4 7.8e-4,9.2e-4 9.1e-4,0.002 z"
         style="font-size:72px;font-style:normal;font-variant:normal;font-weight:900;font-stretch:normal;text-align:center;line-height:75%;letter-spacing:0px;word-spacing:0px;text-anchor:middle;fill:#ffffff;fill-opacity:1;stroke:none;font-family:Pincoyablack;-inkscape-font-specification:Pincoyablack Heavy"
         id="path3053"
         inkscape:connector-curvature="0" />
      <path
         d="m 223.9691,916.98301 0,0.15464 0.0593,0 0,-0.15464 z m 0,-0.052 0,0.0461 0.0593,0 0,-0.0461 z"
         style="font-size:72px;font-style:normal;font-variant:normal;font-weight:900;font-stretch:normal;text-align:center;line-height:75%;letter-spacing:0px;word-spacing:0px;text-anchor:middle;fill:#ffffff;fill-opacity:1;stroke:none;font-family:Pincoyablack;-inkscape-font-specification:Pincoyablack Heavy"
         id="path3055"
         inkscape:connector-curvature="0" />
      <path
         d="m 224.101,916.98584 0,0.13163 c -4e-5,0.006 0.002,0.0113 0.005,0.0149 0.003,0.004 0.008,0.006 0.0149,0.006 l 0.0399,0 0,-0.18679 c 4e-5,-0.006 -0.002,-0.0113 -0.005,-0.0149 -0.003,-0.004 -0.008,-0.006 -0.0149,-0.006 l -0.10659,0 0,0.20696 0.0593,0 0,-0.15464 0.005,0 c 9.2e-4,1.1e-4 0.002,3.7e-4 0.002,7.8e-4 4.9e-4,4e-4 8e-4,9.2e-4 9.2e-4,0.002 z"
         style="font-size:72px;font-style:normal;font-variant:normal;font-weight:900;font-stretch:normal;text-align:center;line-height:75%;letter-spacing:0px;word-spacing:0px;text-anchor:middle;fill:#ffffff;fill-opacity:1;stroke:none;font-family:Pincoyablack;-inkscape-font-specification:Pincoyablack Heavy"
         id="path3057"
         inkscape:connector-curvature="0" />
      <path
         d="m 224.09981,917.14391 0,0.0523 0.10658,0 c 0.006,-7e-5 0.0117,-0.002 0.0149,-0.006 0.003,-0.004 0.005,-0.008 0.005,-0.0149 l 0,-0.19302 -0.0593,0 0,0.1555 c 2e-5,0.002 -3.7e-4,0.003 -9.1e-4,0.004 -8.1e-4,9.2e-4 -0.002,0.002 -0.004,0.002 z m 0.0668,-0.21322 0,0.0461 0.0593,0 0,-0.0461 z"
         style="font-size:72px;font-style:normal;font-variant:normal;font-weight:900;font-stretch:normal;text-align:center;line-height:75%;letter-spacing:0px;word-spacing:0px;text-anchor:middle;fill:#ffffff;fill-opacity:1;stroke:none;font-family:Pincoyablack;-inkscape-font-specification:Pincoyablack Heavy"
         id="path3059"
         inkscape:connector-curvature="0" />
      <path
         d="m 224.29447,916.98301 c 9.1e-4,2e-5 0.002,3.9e-4 0.003,9.1e-4 5.9e-4,7.4e-4 8.8e-4,0.002 8.8e-4,0.003 l 0,0.0432 -0.007,0 0,-0.0432 c -1e-5,-9.1e-4 2.9e-4,-0.002 8.9e-4,-0.003 5.9e-4,-7.4e-4 0.002,-9.1e-4 0.003,-9.1e-4 z m -0.004,0.15464 0,-0.0756 0.007,0 0,0.0756 0.0593,0 0,-0.18677 c 5e-5,-0.006 -0.002,-0.0113 -0.005,-0.0149 -0.003,-0.004 -0.008,-0.006 -0.0151,-0.006 l -0.0868,0 c -0.006,6e-5 -0.0117,0.002 -0.0149,0.006 -0.003,0.004 -0.005,0.008 -0.005,0.0149 l 0,0.18677 z"
         style="font-size:72px;font-style:normal;font-variant:normal;font-weight:900;font-stretch:normal;text-align:center;line-height:75%;letter-spacing:0px;word-spacing:0px;text-anchor:middle;fill:#ffffff;fill-opacity:1;stroke:none;font-family:Pincoyablack;-inkscape-font-specification:Pincoyablack Heavy"
         id="path3061"
         inkscape:connector-curvature="0" />
    </g>
    <g
       id="g3107">
      <path
         sodipodi:nodetypes="szsccs"
         inkscape:connector-curvature="0"
         id="rect2985-7"
         d="m 223.59375,917.90818 c 0,-0.20476 0.0208,-0.58663 0.43757,-0.58663 0.41682,0 0.43757,0.38187 0.43757,0.58663 l 0,0.65432 -0.87514,0 z"
         style="color:#000000;fill:#000000;fill-opacity:1;fill-rule:nonzero;stroke:#ffffff;stroke-width:0.03937709;stroke-linecap:butt;stroke-linejoin:miter;stroke-miterlimit:4;stroke-opacity:1;stroke-dashoffset:0;marker:none;visibility:visible;display:inline;overflow:visible;enable-background:accumulate" />
      <path
         sodipodi:nodetypes="cccccc"
         inkscape:connector-curvature="0"
         id="rect2988-4"
         d="m 223.70256,917.63178 0.65219,0 c 0.0223,0.0692 0.0283,0.14154 0.0322,0.23128 l -0.35872,-0.0559 -0.35638,0.0559 c 9.1e-4,-0.0721 0.0132,-0.17198 0.0308,-0.23128 z"
         style="color:#000000;fill:#ffffff;fill-opacity:1;fill-rule:nonzero;stroke:#ffffff;stroke-width:0.03937709;stroke-linecap:butt;stroke-linejoin:miter;stroke-miterlimit:4;stroke-opacity:1;stroke-dashoffset:0;marker:none;visibility:visible;display:inline;overflow:visible;enable-background:accumulate" />
      <path
         transform="matrix(0.00392695,0,0,4.8293413e-4,223.13977,917.60348)"
         d="m 211.12189,305.35437 c 0,5.29997 -4.29648,9.59645 -9.59645,9.59645 -5.29998,0 -9.59645,-4.29648 -9.59645,-9.59645 0,-5.29997 4.29647,-9.59645 9.59645,-9.59645 5.29997,0 9.59645,4.29648 9.59645,9.59645 z"
         sodipodi:ry="9.5964489"
         sodipodi:rx="9.5964489"
         sodipodi:cy="305.35437"
         sodipodi:cx="201.52544"
         id="path3054-09"
         style="color:#000000;fill:#000000;fill-opacity:1;fill-rule:nonzero;stroke:none;stroke-width:10;marker:none;visibility:visible;display:inline;overflow:visible;enable-background:accumulate"
         sodipodi:type="arc" />
      <path
         d="m 211.12189,305.35437 c 0,5.29997 -4.29648,9.59645 -9.59645,9.59645 -5.29998,0 -9.59645,-4.29648 -9.59645,-9.59645 0,-5.29997 4.29647,-9.59645 9.59645,-9.59645 5.29997,0 9.59645,4.29648 9.59645,9.59645 z"
         sodipodi:ry="9.5964489"
         sodipodi:rx="9.5964489"
         sodipodi:cy="305.35437"
         sodipodi:cx="201.52544"
         id="path3054-0-4"
         style="color:#000000;fill:#000000;fill-opacity:1;fill-rule:nonzero;stroke:none;stroke-width:10;marker:none;visibility:visible;display:inline;overflow:visible;enable-background:accumulate"
         sodipodi:type="arc"
         transform="matrix(0.00392695,0,0,4.8293413e-4,223.34011,917.60348)" />
      <path
         d="m 223.70511,918.02531 0,0.16659 c -3e-5,0.006 0.002,0.0113 0.005,0.0149 0.003,0.004 0.008,0.006 0.0149,0.006 l 0.0472,0 0,0.006 -0.0668,0 0,0.0523 0.1066,0 c 0.006,-6e-5 0.0117,-0.002 0.0149,-0.006 0.003,-0.004 0.005,-0.008 0.005,-0.0149 l 0,-0.24533 -0.10661,0 c -0.006,5e-5 -0.0117,0.002 -0.0149,0.006 -0.003,0.004 -0.005,0.008 -0.005,0.0149 z m 0.0593,0.13191 0,-0.097 c 1.3e-4,-9.1e-4 4.2e-4,-0.002 8.8e-4,-0.002 4.5e-4,-4e-4 9.1e-4,-6.7e-4 0.002,-7.9e-4 l 0.005,0 0,0.10263 -0.004,0 c -9.2e-4,3e-5 -0.002,-1.6e-4 -0.003,-5.7e-4 -6.3e-4,-4e-4 -9.2e-4,-9.2e-4 -9.2e-4,-0.002 z"
         style="font-size:72px;font-style:normal;font-variant:normal;font-weight:900;font-stretch:normal;text-align:center;line-height:75%;letter-spacing:0px;word-spacing:0px;text-anchor:middle;fill:#ffffff;fill-opacity:1;stroke:none;font-family:Pincoyablack;-inkscape-font-specification:Pincoyablack Heavy"
         id="path3045-8"
         inkscape:connector-curvature="0" />
      <path
         d="m 223.90383,918.12851 0,0.0634 c -4e-5,0.006 0.002,0.0113 0.005,0.0148 0.003,0.004 0.008,0.006 0.0149,0.006 l 0.0399,0 0,-0.0793 c 4e-5,-0.006 -0.002,-0.0113 -0.005,-0.0149 -0.003,-0.004 -0.008,-0.006 -0.0149,-0.006 l -2.9e-4,0 0,-0.004 2.9e-4,0 c 0.006,-6e-5 0.0117,-0.002 0.0149,-0.006 0.003,-0.004 0.005,-0.008 0.005,-0.0149 l 0,-0.0648 c -2e-5,-0.006 -0.002,-0.01 -0.005,-0.0133 -0.004,-0.004 -0.008,-0.006 -0.0146,-0.006 l -0.10658,0 0,0.20696 0.0593,0 0,-0.0875 0.004,0 c 0.002,-4e-5 0.003,2.4e-4 0.003,8.2e-4 6.2e-4,5.7e-4 9.2e-4,0.002 9.2e-4,0.003 z m 0,-0.0308 c -1.5e-4,9.1e-4 -5.7e-4,0.002 -9.2e-4,0.002 -6.8e-4,4e-4 -0.002,5.9e-4 -0.003,5.6e-4 l -0.004,0 0,-0.0431 0.007,0 z"
         style="font-size:72px;font-style:normal;font-variant:normal;font-weight:900;font-stretch:normal;text-align:center;line-height:75%;letter-spacing:0px;word-spacing:0px;text-anchor:middle;fill:#ffffff;fill-opacity:1;stroke:none;font-family:Pincoyablack;-inkscape-font-specification:Pincoyablack Heavy"
         id="path3047-8"
         inkscape:connector-curvature="0" />
      <path
         d="m 223.96908,918.05743 0,0.15465 0.0593,0 0,-0.15465 z m 0,-0.052 0,0.0462 0.0593,0 0,-0.0462 z"
         style="font-size:72px;font-style:normal;font-variant:normal;font-weight:900;font-stretch:normal;text-align:center;line-height:75%;letter-spacing:0px;word-spacing:0px;text-anchor:middle;fill:#ffffff;fill-opacity:1;stroke:none;font-family:Pincoyablack;-inkscape-font-specification:Pincoyablack Heavy"
         id="path3049-2"
         inkscape:connector-curvature="0" />
      <path
         d="m 224.10097,918.06027 0,0.13163 c -3e-5,0.006 0.002,0.0113 0.005,0.0149 0.003,0.004 0.008,0.006 0.0149,0.006 l 0.0399,0 0,-0.15494 0.003,0 c 9.1e-4,1.4e-4 0.002,5.1e-4 0.003,9.2e-4 4.7e-4,6.2e-4 7.1e-4,0.002 7e-4,0.003 l 0,0.13077 c -4e-5,0.006 0.002,0.0113 0.005,0.0149 0.003,0.004 0.008,0.006 0.0148,0.006 l 0.0399,0 0,-0.18705 c 4e-5,-0.006 -0.002,-0.0113 -0.005,-0.0149 -0.003,-0.004 -0.008,-0.006 -0.0149,-0.006 l -0.17217,2.9e-4 0,0.20696 0.0593,0 0,-0.15466 0.005,0 c 8.5e-4,1.2e-4 0.002,3.9e-4 0.002,7.9e-4 5.4e-4,4e-4 8.8e-4,9.2e-4 9.2e-4,0.002 z"
         style="font-size:72px;font-style:normal;font-variant:normal;font-weight:900;font-stretch:normal;text-align:center;line-height:75%;letter-spacing:0px;word-spacing:0px;text-anchor:middle;fill:#ffffff;fill-opacity:1;stroke:none;font-family:Pincoyablack;-inkscape-font-specification:Pincoyablack Heavy"
         id="path3051-4"
         inkscape:connector-curvature="0" />
      <path
         d="m 223.90386,918.27349 0,0.13164 c -4e-5,0.006 0.002,0.0113 0.005,0.0149 0.003,0.004 0.008,0.006 0.0149,0.006 l 0.0399,0 0,-0.18678 c 4e-5,-0.006 -0.002,-0.0113 -0.005,-0.0149 -0.003,-0.004 -0.008,-0.006 -0.0149,-0.006 l -0.10659,0 0,0.20698 0.0593,0 0,-0.15467 0.005,0 c 9.1e-4,1.2e-4 0.002,3.9e-4 0.002,7.9e-4 4.9e-4,4e-4 7.8e-4,9.1e-4 9.1e-4,0.002 z"
         style="font-size:72px;font-style:normal;font-variant:normal;font-weight:900;font-stretch:normal;text-align:center;line-height:75%;letter-spacing:0px;word-spacing:0px;text-anchor:middle;fill:#ffffff;fill-opacity:1;stroke:none;font-family:Pincoyablack;-inkscape-font-specification:Pincoyablack Heavy"
         id="path3053-5"
         inkscape:connector-curvature="0" />
      <path
         d="m 223.9691,918.27065 0,0.15467 0.0593,0 0,-0.15467 z m 0,-0.052 0,0.0462 0.0593,0 0,-0.0462 z"
         style="font-size:72px;font-style:normal;font-variant:normal;font-weight:900;font-stretch:normal;text-align:center;line-height:75%;letter-spacing:0px;word-spacing:0px;text-anchor:middle;fill:#ffffff;fill-opacity:1;stroke:none;font-family:Pincoyablack;-inkscape-font-specification:Pincoyablack Heavy"
         id="path3055-5"
         inkscape:connector-curvature="0" />
      <path
         d="m 224.101,918.27349 0,0.13164 c -4e-5,0.006 0.002,0.0113 0.005,0.0149 0.003,0.004 0.008,0.006 0.0149,0.006 l 0.0399,0 0,-0.18678 c 4e-5,-0.006 -0.002,-0.0113 -0.005,-0.0149 -0.003,-0.004 -0.008,-0.006 -0.0149,-0.006 l -0.10659,0 0,0.20698 0.0593,0 0,-0.15467 0.005,0 c 9.2e-4,1.2e-4 0.002,3.9e-4 0.002,7.9e-4 4.9e-4,4e-4 8e-4,9.1e-4 9.2e-4,0.002 z"
         style="font-size:72px;font-style:normal;font-variant:normal;font-weight:900;font-stretch:normal;text-align:center;line-height:75%;letter-spacing:0px;word-spacing:0px;text-anchor:middle;fill:#ffffff;fill-opacity:1;stroke:none;font-family:Pincoyablack;-inkscape-font-specification:Pincoyablack Heavy"
         id="path3057-1"
         inkscape:connector-curvature="0" />
      <path
         d="m 224.09981,918.43157 0,0.0523 0.10658,0 c 0.006,-7e-5 0.0117,-0.002 0.0149,-0.006 0.003,-0.004 0.005,-0.008 0.005,-0.0149 l 0,-0.19303 -0.0593,0 0,0.1555 c 2e-5,0.002 -3.7e-4,0.003 -9.1e-4,0.004 -8.1e-4,9.3e-4 -0.002,0.002 -0.004,0.002 z m 0.0668,-0.21323 0,0.0462 0.0593,0 0,-0.0462 z"
         style="font-size:72px;font-style:normal;font-variant:normal;font-weight:900;font-stretch:normal;text-align:center;line-height:75%;letter-spacing:0px;word-spacing:0px;text-anchor:middle;fill:#ffffff;fill-opacity:1;stroke:none;font-family:Pincoyablack;-inkscape-font-specification:Pincoyablack Heavy"
         id="path3059-7"
         inkscape:connector-curvature="0" />
      <path
         d="m 224.29447,918.27065 c 9.1e-4,3e-5 0.002,4.1e-4 0.003,9.2e-4 5.9e-4,7.4e-4 8.8e-4,0.002 8.8e-4,0.003 l 0,0.0432 -0.007,0 0,-0.0432 c -1e-5,-9.1e-4 2.9e-4,-0.002 8.9e-4,-0.003 5.9e-4,-7.3e-4 0.002,-9.2e-4 0.003,-9.2e-4 z m -0.004,0.15467 0,-0.0756 0.007,0 0,0.0756 0.0593,0 0,-0.1868 c 5e-5,-0.006 -0.002,-0.0113 -0.005,-0.0149 -0.003,-0.004 -0.008,-0.006 -0.0151,-0.006 l -0.0868,0 c -0.006,7e-5 -0.0117,0.002 -0.0149,0.006 -0.003,0.004 -0.005,0.008 -0.005,0.0149 l 0,0.1868 z"
         style="font-size:72px;font-style:normal;font-variant:normal;font-weight:900;font-stretch:normal;text-align:center;line-height:75%;letter-spacing:0px;word-spacing:0px;text-anchor:middle;fill:#ffffff;fill-opacity:1;stroke:none;font-family:Pincoyablack;-inkscape-font-specification:Pincoyablack Heavy"
         id="path3061-1"
         inkscape:connector-curvature="0" />
    </g>
  </g>
</svg>
