<?xml version="1.0" encoding="UTF-8" standalone="no"?>
<!-- Created with Inkscape (http://www.inkscape.org/) -->

<svg
   xmlns:dc="http://purl.org/dc/elements/1.1/"
   xmlns:cc="http://creativecommons.org/ns#"
   xmlns:rdf="http://www.w3.org/1999/02/22-rdf-syntax-ns#"
   xmlns:svg="http://www.w3.org/2000/svg"
   xmlns="http://www.w3.org/2000/svg"
   xmlns:sodipodi="http://sodipodi.sourceforge.net/DTD/sodipodi-0.dtd"
   xmlns:inkscape="http://www.inkscape.org/namespaces/inkscape"
   width="250"
   height="704"
   id="svg2"
   version="1.1"
   inkscape:version="0.48.4 r9939"
   sodipodi:docname="splash.svg">
  <defs
     id="defs4" />
  <sodipodi:namedview
     id="base"
     pagecolor="#ffffff"
     bordercolor="#666666"
     borderopacity="1.0"
     inkscape:pageopacity="0"
     inkscape:pageshadow="2"
     inkscape:zoom="0.49497475"
     inkscape:cx="4.1355399"
     inkscape:cy="378.01168"
     inkscape:document-units="px"
     inkscape:current-layer="layer1"
     showgrid="false"
     inkscape:window-width="883"
     inkscape:window-height="560"
     inkscape:window-x="184"
     inkscape:window-y="42"
     inkscape:window-maximized="0"
     fit-margin-top="0"
     fit-margin-left="0"
     fit-margin-right="0"
     fit-margin-bottom="0" />
  <metadata
     id="metadata7">
    <rdf:RDF>
      <cc:Work
         rdf:about="">
        <dc:format>image/svg+xml</dc:format>
        <dc:type
           rdf:resource="http://purl.org/dc/dcmitype/StillImage" />
        <dc:title />
      </cc:Work>
    </rdf:RDF>
  </metadata>
  <g
     inkscape:label="Layer 1"
     inkscape:groupmode="layer"
     id="layer1"
     transform="translate(-223.5625,-215.59375)">
    <path
       style="color:#000000;fill:#000000;fill-opacity:1;fill-rule:nonzero;stroke:#ffffff;stroke-width:10.76435661;stroke-linecap:butt;stroke-linejoin:miter;stroke-miterlimit:4;stroke-opacity:1;stroke-dashoffset:0;marker:none;visibility:visible;display:inline;overflow:visible;enable-background:accumulate"
       d="m 228.94468,382.34187 c 0,-55.97575 5.67232,-160.36594 119.61782,-160.36594 113.9455,0 119.61782,104.39019 119.61782,160.36594 l 0,178.8697 -239.23563,0 z"
       id="rect2985"
       inkscape:connector-curvature="0"
       sodipodi:nodetypes="szsccs" />
    <path
       style="color:#000000;fill:#ffffff;fill-opacity:1;fill-rule:nonzero;stroke:#ffffff;stroke-width:10.76435661;stroke-linecap:butt;stroke-linejoin:miter;stroke-miterlimit:4;stroke-opacity:1;stroke-dashoffset:0;marker:none;visibility:visible;display:inline;overflow:visible;enable-background:accumulate"
       d="m 258.69212,306.78483 178.28123,0 c 6.07906,18.89837 7.75689,38.69139 8.79872,63.22119 L 347.70915,354.7279 250.2881,370.00602 c 0.29302,-19.728 3.60261,-47.0116 8.40402,-63.22119 z"
       id="rect2988"
       inkscape:connector-curvature="0"
       sodipodi:nodetypes="cccccc" />
    <path
       sodipodi:type="arc"
       style="color:#000000;fill:#000000;fill-opacity:1;fill-rule:nonzero;stroke:none;stroke-width:10;marker:none;visibility:visible;display:inline;overflow:visible;enable-background:accumulate"
       id="path3054"
       sodipodi:cx="201.52544"
       sodipodi:cy="305.35437"
       sodipodi:rx="9.5964489"
       sodipodi:ry="9.5964489"
       d="m 211.12189,305.35437 a 9.5964489,9.5964489 0 1 1 -19.1929,0 9.5964489,9.5964489 0 1 1 19.1929,0 z"
       transform="matrix(1.0734932,0,0,1.0793862,104.84545,9.7625497)" />
    <path
       transform="matrix(1.0734932,0,0,1.0793862,159.60722,9.7625497)"
       sodipodi:type="arc"
       style="color:#000000;fill:#000000;fill-opacity:1;fill-rule:nonzero;stroke:none;stroke-width:10;marker:none;visibility:visible;display:inline;overflow:visible;enable-background:accumulate"
       id="path3054-0"
       sodipodi:cx="201.52544"
       sodipodi:cy="305.35437"
       sodipodi:rx="9.5964489"
       sodipodi:ry="9.5964489"
       d="m 211.12189,305.35437 a 9.5964489,9.5964489 0 1 1 -19.1929,0 9.5964489,9.5964489 0 1 1 19.1929,0 z" />
    <path
       inkscape:connector-curvature="0"
       id="path3045"
       style="font-size:72px;font-style:normal;font-variant:normal;font-weight:900;font-stretch:normal;text-align:center;line-height:75%;letter-spacing:0px;word-spacing:0px;text-anchor:middle;fill:#ffffff;fill-opacity:1;stroke:none;font-family:Pincoyablack;-inkscape-font-specification:Pincoyablack Heavy"
       d="m 259.3901,414.36089 0,45.54088 c -0.01,1.72591 0.41544,3.07298 1.2753,4.04116 0.85985,0.96821 2.21243,1.46039 4.05774,1.47658 l 12.90751,0 0,1.70974 -18.24055,0 0,14.29951 29.13852,0 c 1.84528,-0.0162 3.19786,-0.5084 4.05775,-1.47658 0.85982,-0.9682 1.28493,-2.31526 1.2753,-4.04116 l 0,-67.06788 -29.13853,0 c -1.84531,0.0162 -3.19789,0.50844 -4.05774,1.47658 -0.85986,0.96825 -1.28497,2.31531 -1.2753,4.04117 z m 16.23101,36.05967 0,-26.50074 c 0.037,-0.26549 0.11752,-0.4533 0.24154,-0.56344 0.12396,-0.11006 0.30108,-0.1813 0.53137,-0.21371 l 1.23663,0 0,28.05503 -0.92747,0 c -0.34461,0.006 -0.60224,-0.0453 -0.77291,-0.15543 -0.1707,-0.11007 -0.27376,-0.31731 -0.30916,-0.62171 z" />
    <path
       inkscape:connector-curvature="0"
       id="path3047"
       style="font-size:72px;font-style:normal;font-variant:normal;font-weight:900;font-stretch:normal;text-align:center;line-height:75%;letter-spacing:0px;word-spacing:0px;text-anchor:middle;fill:#ffffff;fill-opacity:1;stroke:none;font-family:Pincoyablack;-inkscape-font-specification:Pincoyablack Heavy"
       d="m 313.71009,442.57138 0,17.33039 c -0.01,1.72591 0.41542,3.07298 1.27529,4.04116 0.85984,0.96821 2.21243,1.46039 4.05776,1.47658 l 10.89797,0 0,-21.68243 c 0.01,-1.72589 -0.41548,-3.07294 -1.2753,-4.04117 -0.85989,-0.96816 -2.21247,-1.46036 -4.05775,-1.47658 l -0.0773,0 0,-1.088 0.0773,0 c 1.84528,-0.0162 3.19786,-0.50836 4.05775,-1.47658 0.85982,-0.96817 1.28492,-2.31523 1.2753,-4.04117 l 0,-17.71897 c -0.005,-1.50245 -0.45895,-2.7135 -1.36226,-3.63317 -0.90336,-0.91957 -2.22696,-1.39234 -3.97079,-1.4183 l -29.13853,0 0,56.57637 16.23101,0 0,-23.93615 0.92748,0 c 0.38321,-0.008 0.66018,0.0664 0.83087,0.22344 0.17067,0.15707 0.2544,0.44526 0.2512,0.86458 z m 0,-8.39321 c -0.0403,0.30441 -0.15299,0.51165 -0.33815,0.62172 -0.18519,0.11012 -0.43316,0.16193 -0.74392,0.15543 l -0.92748,0 0,-11.81265 2.00955,0 z" />
    <path
       inkscape:connector-curvature="0"
       id="path3049"
       style="font-size:72px;font-style:normal;font-variant:normal;font-weight:900;font-stretch:normal;text-align:center;line-height:75%;letter-spacing:0px;word-spacing:0px;text-anchor:middle;fill:#ffffff;fill-opacity:1;stroke:none;font-family:Pincoyablack;-inkscape-font-specification:Pincoyablack Heavy"
       d="m 331.54896,423.14267 0,42.27684 16.23102,0 0,-42.27684 z m 0,-14.22181 0,12.5898 16.23102,0 0,-12.5898 z" />
    <path
       inkscape:connector-curvature="0"
       id="path3051"
       style="font-size:72px;font-style:normal;font-variant:normal;font-weight:900;font-stretch:normal;text-align:center;line-height:75%;letter-spacing:0px;word-spacing:0px;text-anchor:middle;fill:#ffffff;fill-opacity:1;stroke:none;font-family:Pincoyablack;-inkscape-font-specification:Pincoyablack Heavy"
       d="m 367.6028,423.91982 0,35.98195 c -0.01,1.72591 0.41542,3.07298 1.2753,4.04116 0.85984,0.96821 2.21242,1.46039 4.05775,1.47658 l 10.89797,0 0,-42.35456 0.85019,0 c 0.3059,0.0356 0.5249,0.13929 0.65697,0.31085 0.132,0.17167 0.19641,0.43072 0.19323,0.77717 l 0,35.7488 c -0.01,1.72591 0.4154,3.07298 1.27529,4.04116 0.85982,0.96821 2.2124,1.46039 4.05776,1.47658 l 10.89796,0 0,-51.13633 c 0.01,-1.72586 -0.41549,-3.07292 -1.2753,-4.04117 -0.85991,-0.96815 -2.21249,-1.46034 -4.05775,-1.47658 l -47.06992,0.0777 0,56.57637 16.23101,0 0,-42.27684 1.15936,0 c 0.23346,0.0324 0.42346,0.10362 0.57001,0.21371 0.14651,0.11014 0.2399,0.29795 0.28017,0.56344 z" />
    <path
       inkscape:connector-curvature="0"
       id="path3053"
       style="font-size:72px;font-style:normal;font-variant:normal;font-weight:900;font-stretch:normal;text-align:center;line-height:75%;letter-spacing:0px;word-spacing:0px;text-anchor:middle;fill:#ffffff;fill-opacity:1;stroke:none;font-family:Pincoyablack;-inkscape-font-specification:Pincoyablack Heavy"
       d="m 313.71614,482.20667 0,35.98195 c -0.01,1.72592 0.4154,3.07298 1.27528,4.04117 0.85984,0.9682 2.21242,1.46038 4.05775,1.47658 l 10.89797,0 0,-51.05863 c 0.01,-1.72586 -0.41547,-3.07291 -1.27529,-4.04116 -0.85989,-0.96815 -2.21248,-1.46034 -4.05775,-1.47658 l -29.13852,0 0,56.57637 16.231,0 0,-42.27685 1.15936,0 c 0.26728,0.0324 0.46695,0.10362 0.599,0.21371 0.13202,0.11013 0.21576,0.29795 0.2512,0.56344 z" />
    <path
       inkscape:connector-curvature="0"
       id="path3055"
       style="font-size:72px;font-style:normal;font-variant:normal;font-weight:900;font-stretch:normal;text-align:center;line-height:75%;letter-spacing:0px;word-spacing:0px;text-anchor:middle;fill:#ffffff;fill-opacity:1;stroke:none;font-family:Pincoyablack;-inkscape-font-specification:Pincoyablack Heavy"
       d="m 331.55501,481.42952 0,42.27685 16.23101,0 0,-42.27685 z m 0,-14.22181 0,12.5898 16.23101,0 0,-12.5898 z" />
    <path
       inkscape:connector-curvature="0"
       id="path3057"
       style="font-size:72px;font-style:normal;font-variant:normal;font-weight:900;font-stretch:normal;text-align:center;line-height:75%;letter-spacing:0px;word-spacing:0px;text-anchor:middle;fill:#ffffff;fill-opacity:1;stroke:none;font-family:Pincoyablack;-inkscape-font-specification:Pincoyablack Heavy"
       d="m 367.60885,482.20667 0,35.98195 c -0.01,1.72592 0.41542,3.07298 1.2753,4.04117 0.85983,0.9682 2.21241,1.46038 4.05775,1.47658 l 10.89796,0 0,-51.05863 c 0.01,-1.72586 -0.41547,-3.07291 -1.2753,-4.04116 -0.85989,-0.96815 -2.21247,-1.46034 -4.05775,-1.47658 l -29.13852,0 0,56.57637 16.231,0 0,-42.27685 1.15936,0 c 0.26728,0.0324 0.46694,0.10362 0.59901,0.21371 0.13202,0.11013 0.21575,0.29795 0.25119,0.56344 z" />
    <path
       inkscape:connector-curvature="0"
       id="path3059"
       style="font-size:72px;font-style:normal;font-variant:normal;font-weight:900;font-stretch:normal;text-align:center;line-height:75%;letter-spacing:0px;word-spacing:0px;text-anchor:middle;fill:#ffffff;fill-opacity:1;stroke:none;font-family:Pincoyablack;-inkscape-font-specification:Pincoyablack Heavy"
       d="m 367.28445,525.41609 0,14.29953 29.13852,0 c 1.8453,-0.0162 3.19788,-0.50841 4.05775,-1.47658 0.85985,-0.96821 1.28494,-2.31526 1.2753,-4.04117 l 0,-52.76835 -16.23101,0 0,42.50999 c 0.005,0.46952 -0.10145,0.8322 -0.31882,1.08802 -0.21738,0.2558 -0.57486,0.38533 -1.07241,0.38856 z m 18.24056,-58.28609 0,12.58979 16.23101,0 0,-12.58979 z" />
    <path
       inkscape:connector-curvature="0"
       id="path3061"
       style="font-size:72px;font-style:normal;font-variant:normal;font-weight:900;font-stretch:normal;text-align:center;line-height:75%;letter-spacing:0px;word-spacing:0px;text-anchor:middle;fill:#ffffff;fill-opacity:1;stroke:none;font-family:Pincoyablack;-inkscape-font-specification:Pincoyablack Heavy"
       d="m 420.49678,481.42952 c 0.34618,0.006 0.60059,0.11014 0.76325,0.31086 0.16261,0.2008 0.24312,0.45985 0.24153,0.77714 l 0,11.81266 -2.00955,0 0,-11.81266 c -0.002,-0.31729 0.0789,-0.57634 0.24153,-0.77714 0.16261,-0.20073 0.41703,-0.30434 0.76324,-0.31086 z m -1.00477,42.27685 0,-20.67213 2.00955,0 0,20.67213 16.231,0 0,-51.05863 c 0.0113,-1.72586 -0.41707,-3.07291 -1.28495,-4.04116 -0.86793,-0.96815 -2.24307,-1.46034 -4.12537,-1.47658 l -23.7282,0 c -1.84531,0.0162 -3.19789,0.50843 -4.05775,1.47658 -0.85986,0.96825 -1.28496,2.3153 -1.27529,4.04116 l 0,51.05863 z" />
    <path
       style="color:#000000;fill:#000000;fill-opacity:1;fill-rule:nonzero;stroke:#ffffff;stroke-width:10.76435661;stroke-linecap:butt;stroke-linejoin:miter;stroke-miterlimit:4;stroke-opacity:1;stroke-dashoffset:0;marker:none;visibility:visible;display:inline;overflow:visible;enable-background:accumulate"
       d="m 228.94468,734.34187 c 0,-55.97575 5.67232,-160.36594 119.61782,-160.36594 113.9455,0 119.61782,104.39019 119.61782,160.36594 l 0,178.8697 -239.23563,0 z"
       id="rect2985-7"
       inkscape:connector-curvature="0"
       sodipodi:nodetypes="szsccs" />
    <path
       style="color:#000000;fill:#ffffff;fill-opacity:1;fill-rule:nonzero;stroke:#ffffff;stroke-width:10.76435661;stroke-linecap:butt;stroke-linejoin:miter;stroke-miterlimit:4;stroke-opacity:1;stroke-dashoffset:0;marker:none;visibility:visible;display:inline;overflow:visible;enable-background:accumulate"
       d="m 258.69212,658.78483 178.28123,0 c 6.07906,18.89837 7.75689,38.69139 8.79872,63.22119 L 347.70915,706.7279 250.2881,722.00602 c 0.29302,-19.728 3.60261,-47.0116 8.40402,-63.22119 z"
       id="rect2988-4"
       inkscape:connector-curvature="0"
       sodipodi:nodetypes="cccccc" />
    <path
       sodipodi:type="arc"
       style="color:#000000;fill:#000000;fill-opacity:1;fill-rule:nonzero;stroke:none;stroke-width:10;marker:none;visibility:visible;display:inline;overflow:visible;enable-background:accumulate"
       id="path3054-09"
       sodipodi:cx="201.52544"
       sodipodi:cy="305.35437"
       sodipodi:rx="9.5964489"
       sodipodi:ry="9.5964489"
       d="m 211.12189,305.35437 a 9.5964489,9.5964489 0 1 1 -19.1929,0 9.5964489,9.5964489 0 1 1 19.1929,0 z"
       transform="matrix(1.0734932,0,0,0.13201776,104.84545,651.04563)" />
    <path
       transform="matrix(1.0734932,0,0,0.13201776,159.60722,651.04563)"
       sodipodi:type="arc"
       style="color:#000000;fill:#000000;fill-opacity:1;fill-rule:nonzero;stroke:none;stroke-width:10;marker:none;visibility:visible;display:inline;overflow:visible;enable-background:accumulate"
       id="path3054-0-4"
       sodipodi:cx="201.52544"
       sodipodi:cy="305.35437"
       sodipodi:rx="9.5964489"
       sodipodi:ry="9.5964489"
       d="m 211.12189,305.35437 a 9.5964489,9.5964489 0 1 1 -19.1929,0 9.5964489,9.5964489 0 1 1 19.1929,0 z" />
    <path
       inkscape:connector-curvature="0"
       id="path3045-8"
       style="font-size:72px;font-style:normal;font-variant:normal;font-weight:900;font-stretch:normal;text-align:center;line-height:75%;letter-spacing:0px;word-spacing:0px;text-anchor:middle;fill:#ffffff;fill-opacity:1;stroke:none;font-family:Pincoyablack;-inkscape-font-specification:Pincoyablack Heavy"
       d="m 259.3901,766.36089 0,45.54088 c -0.01,1.72591 0.41544,3.07298 1.2753,4.04116 0.85985,0.96821 2.21243,1.46039 4.05774,1.47658 l 12.90751,0 0,1.70974 -18.24055,0 0,14.29951 29.13852,0 c 1.84528,-0.0162 3.19786,-0.5084 4.05775,-1.47658 0.85982,-0.9682 1.28493,-2.31526 1.2753,-4.04116 l 0,-67.06788 -29.13853,0 c -1.84531,0.0162 -3.19789,0.50844 -4.05774,1.47658 -0.85986,0.96825 -1.28497,2.31531 -1.2753,4.04117 z m 16.23101,36.05967 0,-26.50074 c 0.037,-0.26549 0.11752,-0.4533 0.24154,-0.56344 0.12396,-0.11006 0.30108,-0.1813 0.53137,-0.21371 l 1.23663,0 0,28.05503 -0.92747,0 c -0.34461,0.006 -0.60224,-0.0453 -0.77291,-0.15543 -0.1707,-0.11007 -0.27376,-0.31731 -0.30916,-0.62171 z" />
    <path
       inkscape:connector-curvature="0"
       id="path3047-8"
       style="font-size:72px;font-style:normal;font-variant:normal;font-weight:900;font-stretch:normal;text-align:center;line-height:75%;letter-spacing:0px;word-spacing:0px;text-anchor:middle;fill:#ffffff;fill-opacity:1;stroke:none;font-family:Pincoyablack;-inkscape-font-specification:Pincoyablack Heavy"
       d="m 313.71009,794.57138 0,17.33039 c -0.01,1.72591 0.41542,3.07298 1.27529,4.04116 0.85984,0.96821 2.21243,1.46039 4.05776,1.47658 l 10.89797,0 0,-21.68243 c 0.01,-1.72589 -0.41548,-3.07294 -1.2753,-4.04117 -0.85989,-0.96816 -2.21247,-1.46036 -4.05775,-1.47658 l -0.0773,0 0,-1.088 0.0773,0 c 1.84528,-0.0162 3.19786,-0.50836 4.05775,-1.47658 0.85982,-0.96817 1.28492,-2.31523 1.2753,-4.04117 l 0,-17.71897 c -0.005,-1.50245 -0.45895,-2.7135 -1.36226,-3.63317 -0.90336,-0.91957 -2.22696,-1.39234 -3.97079,-1.4183 l -29.13853,0 0,56.57637 16.23101,0 0,-23.93615 0.92748,0 c 0.38321,-0.008 0.66018,0.0664 0.83087,0.22344 0.17067,0.15707 0.2544,0.44526 0.2512,0.86458 z m 0,-8.39321 c -0.0403,0.30441 -0.15299,0.51165 -0.33815,0.62172 -0.18519,0.11012 -0.43316,0.16193 -0.74392,0.15543 l -0.92748,0 0,-11.81265 2.00955,0 z" />
    <path
       inkscape:connector-curvature="0"
       id="path3049-2"
       style="font-size:72px;font-style:normal;font-variant:normal;font-weight:900;font-stretch:normal;text-align:center;line-height:75%;letter-spacing:0px;word-spacing:0px;text-anchor:middle;fill:#ffffff;fill-opacity:1;stroke:none;font-family:Pincoyablack;-inkscape-font-specification:Pincoyablack Heavy"
       d="m 331.54896,775.14267 0,42.27684 16.23102,0 0,-42.27684 z m 0,-14.22181 0,12.5898 16.23102,0 0,-12.5898 z" />
    <path
       inkscape:connector-curvature="0"
       id="path3051-4"
       style="font-size:72px;font-style:normal;font-variant:normal;font-weight:900;font-stretch:normal;text-align:center;line-height:75%;letter-spacing:0px;word-spacing:0px;text-anchor:middle;fill:#ffffff;fill-opacity:1;stroke:none;font-family:Pincoyablack;-inkscape-font-specification:Pincoyablack Heavy"
       d="m 367.6028,775.91982 0,35.98195 c -0.01,1.72591 0.41542,3.07298 1.2753,4.04116 0.85984,0.96821 2.21242,1.46039 4.05775,1.47658 l 10.89797,0 0,-42.35456 0.85019,0 c 0.3059,0.0356 0.5249,0.13929 0.65697,0.31085 0.132,0.17167 0.19641,0.43072 0.19323,0.77717 l 0,35.7488 c -0.01,1.72591 0.4154,3.07298 1.27529,4.04116 0.85982,0.96821 2.2124,1.46039 4.05776,1.47658 l 10.89796,0 0,-51.13633 c 0.01,-1.72586 -0.41549,-3.07292 -1.2753,-4.04117 -0.85991,-0.96815 -2.21249,-1.46034 -4.05775,-1.47658 l -47.06992,0.0777 0,56.57637 16.23101,0 0,-42.27684 1.15936,0 c 0.23346,0.0324 0.42346,0.10362 0.57001,0.21371 0.14651,0.11014 0.2399,0.29795 0.28017,0.56344 z" />
    <path
       inkscape:connector-curvature="0"
       id="path3053-5"
       style="font-size:72px;font-style:normal;font-variant:normal;font-weight:900;font-stretch:normal;text-align:center;line-height:75%;letter-spacing:0px;word-spacing:0px;text-anchor:middle;fill:#ffffff;fill-opacity:1;stroke:none;font-family:Pincoyablack;-inkscape-font-specification:Pincoyablack Heavy"
       d="m 313.71614,834.20667 0,35.98195 c -0.01,1.72592 0.4154,3.07298 1.27528,4.04117 0.85984,0.9682 2.21242,1.46038 4.05775,1.47658 l 10.89797,0 0,-51.05863 c 0.01,-1.72586 -0.41547,-3.07291 -1.27529,-4.04116 -0.85989,-0.96815 -2.21248,-1.46034 -4.05775,-1.47658 l -29.13852,0 0,56.57637 16.231,0 0,-42.27685 1.15936,0 c 0.26728,0.0324 0.46695,0.10362 0.599,0.21371 0.13202,0.11013 0.21576,0.29795 0.2512,0.56344 z" />
    <path
       inkscape:connector-curvature="0"
       id="path3055-5"
       style="font-size:72px;font-style:normal;font-variant:normal;font-weight:900;font-stretch:normal;text-align:center;line-height:75%;letter-spacing:0px;word-spacing:0px;text-anchor:middle;fill:#ffffff;fill-opacity:1;stroke:none;font-family:Pincoyablack;-inkscape-font-specification:Pincoyablack Heavy"
       d="m 331.55501,833.42952 0,42.27685 16.23101,0 0,-42.27685 z m 0,-14.22181 0,12.5898 16.23101,0 0,-12.5898 z" />
    <path
       inkscape:connector-curvature="0"
       id="path3057-1"
       style="font-size:72px;font-style:normal;font-variant:normal;font-weight:900;font-stretch:normal;text-align:center;line-height:75%;letter-spacing:0px;word-spacing:0px;text-anchor:middle;fill:#ffffff;fill-opacity:1;stroke:none;font-family:Pincoyablack;-inkscape-font-specification:Pincoyablack Heavy"
       d="m 367.60885,834.20667 0,35.98195 c -0.01,1.72592 0.41542,3.07298 1.2753,4.04117 0.85983,0.9682 2.21241,1.46038 4.05775,1.47658 l 10.89796,0 0,-51.05863 c 0.01,-1.72586 -0.41547,-3.07291 -1.2753,-4.04116 -0.85989,-0.96815 -2.21247,-1.46034 -4.05775,-1.47658 l -29.13852,0 0,56.57637 16.231,0 0,-42.27685 1.15936,0 c 0.26728,0.0324 0.46694,0.10362 0.59901,0.21371 0.13202,0.11013 0.21575,0.29795 0.25119,0.56344 z" />
    <path
       inkscape:connector-curvature="0"
       id="path3059-7"
       style="font-size:72px;font-style:normal;font-variant:normal;font-weight:900;font-stretch:normal;text-align:center;line-height:75%;letter-spacing:0px;word-spacing:0px;text-anchor:middle;fill:#ffffff;fill-opacity:1;stroke:none;font-family:Pincoyablack;-inkscape-font-specification:Pincoyablack Heavy"
       d="m 367.28445,877.41609 0,14.29953 29.13852,0 c 1.8453,-0.0162 3.19788,-0.50841 4.05775,-1.47658 0.85985,-0.96821 1.28494,-2.31526 1.2753,-4.04117 l 0,-52.76835 -16.23101,0 0,42.50999 c 0.005,0.46952 -0.10145,0.8322 -0.31882,1.08802 -0.21738,0.2558 -0.57486,0.38533 -1.07241,0.38856 z m 18.24056,-58.28609 0,12.58979 16.23101,0 0,-12.58979 z" />
    <path
       inkscape:connector-curvature="0"
       id="path3061-1"
       style="font-size:72px;font-style:normal;font-variant:normal;font-weight:900;font-stretch:normal;text-align:center;line-height:75%;letter-spacing:0px;word-spacing:0px;text-anchor:middle;fill:#ffffff;fill-opacity:1;stroke:none;font-family:Pincoyablack;-inkscape-font-specification:Pincoyablack Heavy"
       d="m 420.49678,833.42952 c 0.34618,0.006 0.60059,0.11014 0.76325,0.31086 0.16261,0.2008 0.24312,0.45985 0.24153,0.77714 l 0,11.81266 -2.00955,0 0,-11.81266 c -0.002,-0.31729 0.0789,-0.57634 0.24153,-0.77714 0.16261,-0.20073 0.41703,-0.30434 0.76324,-0.31086 z m -1.00477,42.27685 0,-20.67213 2.00955,0 0,20.67213 16.231,0 0,-51.05863 c 0.0113,-1.72586 -0.41707,-3.07291 -1.28495,-4.04116 -0.86793,-0.96815 -2.24307,-1.46034 -4.12537,-1.47658 l -23.7282,0 c -1.84531,0.0162 -3.19789,0.50843 -4.05775,1.47658 -0.85986,0.96825 -1.28496,2.3153 -1.27529,4.04116 l 0,51.05863 z" />
  </g>
</svg>
